<svg width="376" height="44" viewBox="0 0 376 44" fill="none" xmlns="http://www.w3.org/2000/svg">
<rect opacity="0.35" x="337.333" y="17.8333" width="21" height="10.3333" rx="2.16667" stroke="#3C3C43" stroke-opacity="0.6"/>
<path opacity="0.4" d="M359.833 21V25C360.638 24.6612 361.162 23.8731 361.162 23C361.162 22.1269 360.638 21.3388 359.833 21Z" fill="#3C3C43" fill-opacity="0.6"/>
<rect x="338.833" y="19.3333" width="18" height="7.33333" rx="1.33333" fill="black"/>
<path fill-rule="evenodd" clip-rule="evenodd" d="M324.167 19.615C326.392 19.6151 328.531 20.4693 330.144 22.0008C330.265 22.1191 330.459 22.1176 330.579 21.9975L331.739 20.8272C331.8 20.7663 331.834 20.6837 331.833 20.5979C331.833 20.5121 331.798 20.4299 331.737 20.3697C327.505 16.3175 320.829 16.3175 316.597 20.3697C316.535 20.4299 316.501 20.512 316.5 20.5978C316.499 20.6837 316.533 20.7662 316.594 20.8272L317.755 21.9975C317.874 22.1178 318.068 22.1193 318.19 22.0008C319.802 20.4692 321.942 19.615 324.167 19.615ZM324.167 23.4226C325.389 23.4226 326.568 23.8765 327.474 24.6963C327.597 24.8126 327.79 24.8101 327.909 24.6906L329.069 23.5203C329.13 23.4589 329.163 23.3756 329.163 23.2891C329.162 23.2025 329.126 23.12 329.064 23.0598C326.305 20.4954 322.032 20.4954 319.273 23.0598C319.21 23.12 319.175 23.2026 319.174 23.2891C319.173 23.3757 319.207 23.459 319.268 23.5203L320.427 24.6906C320.547 24.8101 320.74 24.8126 320.862 24.6963C321.768 23.877 322.946 23.4231 324.167 23.4226ZM326.489 25.9845C326.491 26.0712 326.457 26.1549 326.395 26.2157L324.39 28.2377C324.331 28.2971 324.251 28.3306 324.167 28.3306C324.083 28.3306 324.003 28.2971 323.945 28.2377L321.939 26.2157C321.877 26.1549 321.843 26.0712 321.845 25.9844C321.847 25.8976 321.884 25.8154 321.949 25.7573C323.229 24.675 325.105 24.675 326.386 25.7573C326.45 25.8155 326.488 25.8977 326.489 25.9845Z" fill="black"/>
<path fill-rule="evenodd" clip-rule="evenodd" d="M310.5 17.6665H309.5C308.948 17.6665 308.5 18.1142 308.5 18.6665V27.3332C308.5 27.8855 308.948 28.3332 309.5 28.3332H310.5C311.052 28.3332 311.5 27.8855 311.5 27.3332V18.6665C311.5 18.1142 311.052 17.6665 310.5 17.6665ZM304.833 19.9998H305.833C306.386 19.9998 306.833 20.4476 306.833 20.9998V27.3332C306.833 27.8855 306.386 28.3332 305.833 28.3332H304.833C304.281 28.3332 303.833 27.8855 303.833 27.3332V20.9998C303.833 20.4476 304.281 19.9998 304.833 19.9998ZM301.167 22.3332H300.167C299.614 22.3332 299.167 22.7809 299.167 23.3332V27.3332C299.167 27.8855 299.614 28.3332 300.167 28.3332H301.167C301.719 28.3332 302.167 27.8855 302.167 27.3332V23.3332C302.167 22.7809 301.719 22.3332 301.167 22.3332ZM296.5 24.3332H295.5C294.948 24.3332 294.5 24.7809 294.5 25.3332V27.3332C294.5 27.8855 294.948 28.3332 295.5 28.3332H296.5C297.052 28.3332 297.5 27.8855 297.5 27.3332V25.3332C297.5 24.7809 297.052 24.3332 296.5 24.3332Z" fill="black"/>
<path d="M19.0411 17.9648C21.2149 17.9648 23.0264 19.4893 23.0264 22.9482V22.9619C23.0264 26.2227 21.5157 28.1709 19.0001 28.1709C17.1749 28.1709 15.8077 27.1182 15.5001 25.6279L15.4864 25.5527H17.2364L17.2569 25.6143C17.5235 26.291 18.1251 26.7285 19.0069 26.7285C20.5929 26.7285 21.2559 25.2109 21.3243 23.3447C21.3311 23.2422 21.338 23.1396 21.338 23.0303H21.297C20.9073 23.9326 19.9229 24.6162 18.5899 24.6162C16.6895 24.6162 15.3497 23.249 15.3497 21.3965V21.3828C15.3497 19.3936 16.9151 17.9648 19.0411 17.9648ZM19.0411 23.2559C20.169 23.2559 21.0304 22.4629 21.0304 21.3623V21.3555C21.0304 20.2617 20.169 19.4072 19.0616 19.4072C17.9679 19.4072 17.086 20.2549 17.086 21.3213V21.335C17.086 22.4561 17.92 23.2559 19.0411 23.2559ZM24.9476 21.5469C24.3939 21.5469 23.9564 21.1094 23.9564 20.5557C23.9564 20.002 24.3939 19.5713 24.9476 19.5713C25.5013 19.5713 25.932 20.002 25.932 20.5557C25.932 21.1094 25.5013 21.5469 24.9476 21.5469ZM24.9476 26.5645C24.3939 26.5645 23.9564 26.127 23.9564 25.5732C23.9564 25.0195 24.3939 24.5889 24.9476 24.5889C25.5013 24.5889 25.932 25.0195 25.932 25.5732C25.932 26.127 25.5013 26.5645 24.9476 26.5645ZM31.7155 28V26.1064H26.7936V24.6025L30.8883 18.1357H33.3971V24.6572H34.737V26.1064H33.3971V28H31.7155ZM28.3795 24.6982H31.7428V19.4688H31.7018L28.3795 24.6504V24.6982ZM38.0322 28V19.8174H37.9911L35.4413 21.5674V19.9473L38.0185 18.1357H39.7616V28H38.0322Z" fill="black"/>
</svg>
