<svg width="107" height="107" viewBox="0 0 107 107" fill="none" xmlns="http://www.w3.org/2000/svg">
<rect width="107" height="107" rx="5" fill="#D9D9D9"/>
<path d="M52.9978 49.5078C52.9978 51.3477 54.2165 53.2344 55.6931 53.9609L55.1306 54.6992C53.9821 54.0957 53.0212 52.8652 52.5642 51.418C52.0954 52.959 51.111 54.2715 49.9392 54.8984L49.3532 54.1602C50.8767 53.4102 52.0837 51.4062 52.0954 49.5078V47.6094H52.9978V49.5078ZM57.5681 46.707V50.9375H59.3142V51.7344H57.5681V57.125H56.654V46.707H57.5681ZM53.2556 60.9453C53.2556 62.3516 54.3689 63.6172 55.9275 64.1094L55.4587 64.8477C54.2458 64.4375 53.279 63.582 52.8103 62.4805C52.3532 63.6699 51.3747 64.6074 50.1384 65.0586L49.6579 64.3203C51.2165 63.7695 52.3298 62.4219 52.3298 60.9453V60.3359H49.8923V59.5859H55.6579V60.3359H53.2556V60.9453ZM58.1071 58.7188V66.3594H57.1931V58.7188H58.1071ZM58.4353 68.1289V68.9023H51.3806V65.6328H52.2946V68.1289H58.4353Z" fill="#D9D9D9"/>
<circle cx="54" cy="56" r="25" fill="white"/>
<circle cx="54" cy="56" r="25" fill="#9C9C9C"/>
<path d="M62.9902 43.8975H44.2402C43.6186 43.8975 43.0225 44.1444 42.583 44.5839C42.1434 45.0235 41.8965 45.6196 41.8965 46.2412V64.9912C41.8965 65.6128 42.1434 66.209 42.583 66.6485C43.0225 67.088 43.6186 67.335 44.2402 67.335H62.9902C63.6118 67.335 64.208 67.088 64.6475 66.6485C65.0871 66.209 65.334 65.6128 65.334 64.9912V46.2412C65.334 45.6196 65.0871 45.0235 64.6475 44.5839C64.208 44.1444 63.6118 43.8975 62.9902 43.8975ZM62.5215 46.71V54.1771L60.4285 52.0842C59.989 51.6448 59.393 51.398 58.7715 51.398C58.15 51.398 57.554 51.6448 57.1145 52.0842L44.709 64.4896V46.71H62.5215ZM48.6535 64.5225L58.7715 54.4045L62.5215 58.1545V64.5225H48.6535ZM47.5215 51.8662C47.5215 51.4027 47.6589 50.9495 47.9165 50.5641C48.174 50.1787 48.5401 49.8783 48.9683 49.7009C49.3966 49.5235 49.8678 49.4771 50.3225 49.5675C50.7771 49.6579 51.1947 49.8812 51.5225 50.2089C51.8503 50.5367 52.0735 50.9543 52.1639 51.409C52.2544 51.8636 52.208 52.3349 52.0306 52.7631C51.8532 53.1914 51.5528 53.5574 51.1674 53.815C50.7819 54.0725 50.3288 54.21 49.8652 54.21C49.2436 54.21 48.6475 53.963 48.208 53.5235C47.7684 53.084 47.5215 52.4878 47.5215 51.8662Z" fill="black"/>
</svg>
