<svg width="2479" height="2576" viewBox="0 0 2479 2576" fill="none" xmlns="http://www.w3.org/2000/svg">
<path d="M2316.16 1712.54C2269.83 1239.08 2014.19 1001.57 2014.19 1001.57L1549.38 429.243H929.625L464.813 1001.57C464.813 1001.57 354.884 1104.09 265.95 1307.4C111.865 1354.62 0 1487.26 0 1645.43C0.0667504 1694.61 11.1787 1743.24 32.6335 1788.24C54.0884 1833.25 85.4196 1873.66 124.647 1906.91C94.0945 1958.35 77.8813 2016.01 77.4688 2074.68C77.4688 2214.75 165.473 2334.8 292.445 2393.46C391.837 2530.96 524.618 2575.46 619.75 2575.46H1859.25C1966.08 2575.46 2120.55 2519.73 2221.65 2338.66C2371.24 2289.23 2479 2158.38 2479 2003.14C2478.92 1946.21 2464.1 1890.14 2435.77 1839.58C2407.45 1789.03 2366.43 1745.47 2316.16 1712.54ZM1239.5 429.243C1282.11 429.243 1323.63 471.082 1357.87 452.624C1392.19 471.082 1452.18 442.098 1494.71 442.098C1623.08 442.098 1781.78 261.552 1781.78 143.081C1781.78 143.081 1781.78 0 1626.84 0C1565.8 0 1549.38 71.5405 1471.91 71.5405C1394.44 71.5405 1394.44 0 1239.5 0C1084.56 0 1084.56 71.5405 1007.09 71.5405C929.625 71.5405 913.279 0 852.156 0C697.219 0 697.219 143.081 697.219 143.081C697.219 261.552 861.17 442.098 989.458 442.098C1031.99 442.098 1091.98 471.082 1126.3 452.624C1160.62 471.082 1196.97 429.243 1239.5 429.243Z" fill="#142755"/>
<mask id="path-2-outside-1_2299_11700" maskUnits="userSpaceOnUse" x="832.934" y="1109.98" width="811" height="882" fill="black">
<rect fill="white" x="832.934" y="1109.98" width="811" height="882"/>
<path d="M847.059 1977.98V1169.85H1379.49V1308.26H1014.49V1504.71H1344.89V1643.12H1014.49V1977.98H847.059ZM1458.07 1977.98V1371.88H1623.27V1977.98H1458.07ZM1540.67 1292.63C1490.44 1292.63 1450.26 1254.68 1450.26 1208.91C1450.26 1162.03 1490.44 1124.08 1540.67 1124.08C1589.79 1124.08 1629.97 1162.03 1629.97 1208.91C1629.97 1254.68 1589.79 1292.63 1540.67 1292.63Z"/>
</mask>
<path d="M847.059 1977.98V1169.85H1379.49V1308.26H1014.49V1504.71H1344.89V1643.12H1014.49V1977.98H847.059ZM1458.07 1977.98V1371.88H1623.27V1977.98H1458.07ZM1540.67 1292.63C1490.44 1292.63 1450.26 1254.68 1450.26 1208.91C1450.26 1162.03 1490.44 1124.08 1540.67 1124.08C1589.79 1124.08 1629.97 1162.03 1629.97 1208.91C1629.97 1254.68 1589.79 1292.63 1540.67 1292.63Z" fill="white"/>
<path d="M847.059 1977.98H833.168V1991.87H847.059V1977.98ZM847.059 1169.85V1155.96H833.168V1169.85H847.059ZM1379.49 1169.85H1393.38V1155.96H1379.49V1169.85ZM1379.49 1308.26V1322.15H1393.38V1308.26H1379.49ZM1014.49 1308.26V1294.37H1000.6V1308.26H1014.49ZM1014.49 1504.71H1000.6V1518.6H1014.49V1504.71ZM1344.89 1504.71H1358.78V1490.82H1344.89V1504.71ZM1344.89 1643.12V1657.01H1358.78V1643.12H1344.89ZM1014.49 1643.12V1629.23H1000.6V1643.12H1014.49ZM1014.49 1977.98V1991.87H1028.38V1977.98H1014.49ZM860.949 1977.98V1169.85H833.168V1977.98H860.949ZM847.059 1183.74H1379.49V1155.96H847.059V1183.74ZM1365.6 1169.85V1308.26H1393.38V1169.85H1365.6ZM1379.49 1294.37H1014.49V1322.15H1379.49V1294.37ZM1000.6 1308.26V1504.71H1028.38V1308.26H1000.6ZM1014.49 1518.6H1344.89V1490.82H1014.49V1518.6ZM1331 1504.71V1643.12H1358.78V1504.71H1331ZM1344.89 1629.23H1014.49V1657.01H1344.89V1629.23ZM1000.6 1643.12V1977.98H1028.38V1643.12H1000.6ZM1014.49 1964.09H847.059V1991.87H1014.49V1964.09ZM1458.07 1977.98H1444.18V1991.87H1458.07V1977.98ZM1458.07 1371.88V1357.99H1444.18V1371.88H1458.07ZM1623.27 1371.88H1637.16V1357.99H1623.27V1371.88ZM1623.27 1977.98V1991.87H1637.16V1977.98H1623.27ZM1471.96 1977.98V1371.88H1444.18V1977.98H1471.96ZM1458.07 1385.77H1623.27V1357.99H1458.07V1385.77ZM1609.38 1371.88V1977.98H1637.16V1371.88H1609.38ZM1623.27 1964.09H1458.07V1991.87H1623.27V1964.09ZM1540.67 1278.74C1497.17 1278.74 1464.15 1246.1 1464.15 1208.91H1436.37C1436.37 1263.26 1483.72 1306.52 1540.67 1306.52V1278.74ZM1464.15 1208.91C1464.15 1170.5 1497.3 1137.97 1540.67 1137.97V1110.19C1483.59 1110.19 1436.37 1153.57 1436.37 1208.91H1464.15ZM1540.67 1137.97C1582.82 1137.97 1616.08 1170.39 1616.08 1208.91H1643.86C1643.86 1153.67 1596.75 1110.19 1540.67 1110.19V1137.97ZM1616.08 1208.91C1616.08 1246.2 1582.94 1278.74 1540.67 1278.74V1306.52C1596.63 1306.52 1643.86 1263.15 1643.86 1208.91H1616.08Z" fill="white" mask="url(#path-2-outside-1_2299_11700)"/>
<path d="M1578.92 1189.45H2168.39" stroke="white" stroke-width="84.2092" stroke-linecap="round"/>
</svg>
