<svg width="11" height="11" viewBox="0 0 11 11" fill="none" xmlns="http://www.w3.org/2000/svg">
<path d="M5.1875 0.9375C3.89499 0.938865 2.65581 1.45292 1.74186 2.36686C0.827918 3.28081 0.313865 4.51999 0.3125 5.8125V9.75C0.3125 9.99864 0.411272 10.2371 0.587087 10.4129C0.762903 10.5887 1.00136 10.6875 1.25 10.6875H5.1875C6.48043 10.6875 7.72041 10.1739 8.63465 9.25965C9.54889 8.34541 10.0625 7.10543 10.0625 5.8125C10.0625 4.51957 9.54889 3.27959 8.63465 2.36535C7.72041 1.45111 6.48043 0.9375 5.1875 0.9375ZM5.1875 9.5625H1.4375V5.8125C1.4375 5.07082 1.65743 4.3458 2.06949 3.72911C2.48154 3.11243 3.06721 2.63178 3.75244 2.34795C4.43766 2.06412 5.19166 1.98986 5.91909 2.13456C6.64652 2.27925 7.3147 2.6364 7.83915 3.16085C8.3636 3.6853 8.72075 4.35348 8.86545 5.08091C9.01014 5.80834 8.93588 6.56234 8.65205 7.24756C8.36822 7.93279 7.88757 8.51846 7.27089 8.93051C6.6542 9.34257 5.92918 9.5625 5.1875 9.5625ZM4.8125 6C4.8125 6.14834 4.76851 6.29334 4.6861 6.41668C4.60369 6.54001 4.48656 6.63614 4.34951 6.69291C4.21247 6.74968 4.06167 6.76453 3.91618 6.73559C3.7707 6.70665 3.63706 6.63522 3.53217 6.53033C3.42728 6.42544 3.35585 6.2918 3.32691 6.14632C3.29797 6.00083 3.31282 5.85003 3.36959 5.71299C3.42636 5.57594 3.52249 5.45881 3.64582 5.3764C3.76916 5.29399 3.91416 5.25 4.0625 5.25C4.26141 5.25 4.45218 5.32902 4.59283 5.46967C4.73348 5.61032 4.8125 5.80109 4.8125 6ZM7.0625 6C7.0625 6.14834 7.01851 6.29334 6.9361 6.41668C6.85369 6.54001 6.73656 6.63614 6.59951 6.69291C6.46247 6.74968 6.31167 6.76453 6.16618 6.73559C6.0207 6.70665 5.88706 6.63522 5.78217 6.53033C5.67728 6.42544 5.60585 6.2918 5.57691 6.14632C5.54797 6.00083 5.56282 5.85003 5.61959 5.71299C5.67636 5.57594 5.77249 5.45881 5.89582 5.3764C6.01916 5.29399 6.16416 5.25 6.3125 5.25C6.51141 5.25 6.70218 5.32902 6.84283 5.46967C6.98348 5.61032 7.0625 5.80109 7.0625 6Z" fill="#B4B4B4"/>
</svg>
