<svg width="15" height="15" viewBox="0 0 15 15" fill="none" xmlns="http://www.w3.org/2000/svg">
<path d="M10.4297 2.10938C9.25254 2.10938 8.20781 2.57402 7.5 3.37266C6.79219 2.57402 5.74746 2.10938 4.57031 2.10938C3.54505 2.11062 2.56214 2.51845 1.83717 3.24342C1.1122 3.96839 0.704365 4.9513 0.703125 5.97656C0.703125 10.2152 6.90293 13.602 7.1666 13.7443C7.26906 13.7995 7.38362 13.8284 7.5 13.8284C7.61638 13.8284 7.73094 13.7995 7.8334 13.7443C8.09707 13.602 14.2969 10.2152 14.2969 5.97656C14.2956 4.9513 13.8878 3.96839 13.1628 3.24342C12.4379 2.51845 11.4549 2.11062 10.4297 2.10938ZM10.108 10.4508C9.29195 11.1433 8.4196 11.7665 7.5 12.3141C6.5804 11.7665 5.70805 11.1433 4.89199 10.4508C3.62227 9.36152 2.10938 7.70039 2.10938 5.97656C2.10938 5.32388 2.36865 4.69793 2.83017 4.23642C3.29168 3.7749 3.91763 3.51562 4.57031 3.51562C5.61328 3.51562 6.48633 4.06641 6.84902 4.95352C6.90181 5.08284 6.99192 5.1935 7.10786 5.2714C7.2238 5.3493 7.36032 5.39091 7.5 5.39091C7.63968 5.39091 7.7762 5.3493 7.89214 5.2714C8.00808 5.1935 8.09819 5.08284 8.15098 4.95352C8.51367 4.06641 9.38672 3.51562 10.4297 3.51562C11.0824 3.51562 11.7083 3.7749 12.1698 4.23642C12.6313 4.69793 12.8906 5.32388 12.8906 5.97656C12.8906 7.70039 11.3777 9.36152 10.108 10.4508Z" fill="#B4B4B4"/>
</svg>
