<svg width="11" height="10" viewBox="0 0 11 10" fill="none" xmlns="http://www.w3.org/2000/svg">
<path d="M7.64844 0.546875C6.7852 0.546875 6.01906 0.887617 5.5 1.47328C4.98094 0.887617 4.2148 0.546875 3.35156 0.546875C2.5997 0.547785 1.8789 0.846862 1.34726 1.37851C0.815612 1.91015 0.516535 2.63095 0.515625 3.38281C0.515625 6.49117 5.06215 8.97477 5.25551 9.07918C5.33065 9.11965 5.41466 9.14083 5.5 9.14083C5.58534 9.14083 5.66935 9.11965 5.74449 9.07918C5.93785 8.97477 10.4844 6.49117 10.4844 3.38281C10.4835 2.63095 10.1844 1.91015 9.65274 1.37851C9.1211 0.846862 8.4003 0.547785 7.64844 0.546875ZM7.41254 6.66391C6.8141 7.17173 6.17437 7.62878 5.5 8.03031C4.82563 7.62878 4.1859 7.17173 3.58746 6.66391C2.65633 5.86512 1.54688 4.64695 1.54688 3.38281C1.54688 2.90418 1.73701 2.44515 2.07546 2.10671C2.4139 1.76826 2.87293 1.57812 3.35156 1.57812C4.11641 1.57812 4.75664 1.98203 5.02262 2.63258C5.06133 2.72741 5.12741 2.80857 5.21243 2.8657C5.29746 2.92282 5.39757 2.95333 5.5 2.95333C5.60243 2.95333 5.70254 2.92282 5.78757 2.8657C5.87259 2.80857 5.93867 2.72741 5.97738 2.63258C6.24336 1.98203 6.88359 1.57812 7.64844 1.57812C8.12707 1.57812 8.5861 1.76826 8.92454 2.10671C9.26299 2.44515 9.45312 2.90418 9.45312 3.38281C9.45312 4.64695 8.34367 5.86512 7.41254 6.66391Z" fill="#B4B4B4"/>
</svg>
