<svg width="3" height="14" viewBox="0 0 3 14" fill="none" xmlns="http://www.w3.org/2000/svg">
<path d="M1.40318 3.5C2.14499 3.5 2.75192 2.825 2.75192 2C2.75192 1.175 2.14499 0.5 1.40318 0.5C0.661376 0.5 0.0544434 1.175 0.0544434 2C0.0544434 2.825 0.661376 3.5 1.40318 3.5ZM1.40318 5.5C0.661376 5.5 0.0544434 6.175 0.0544434 7C0.0544434 7.825 0.661376 8.5 1.40318 8.5C2.14499 8.5 2.75192 7.825 2.75192 7C2.75192 6.175 2.14499 5.5 1.40318 5.5ZM1.40318 10.5C0.661376 10.5 0.0544434 11.175 0.0544434 12C0.0544434 12.825 0.661376 13.5 1.40318 13.5C2.14499 13.5 2.75192 12.825 2.75192 12C2.75192 11.175 2.14499 10.5 1.40318 10.5Z" fill="black"/>
</svg>