<svg width="24" height="24" viewBox="0 0 24 24" fill="none" xmlns="http://www.w3.org/2000/svg">
<path d="M17.2959 12.7959L9.79594 20.2959C9.5846 20.5072 9.29795 20.626 8.99907 20.626C8.70018 20.626 8.41354 20.5072 8.20219 20.2959C7.99085 20.0846 7.87212 19.7979 7.87212 19.499C7.87212 19.2001 7.99085 18.9135 8.20219 18.7021L14.9063 12L8.20407 5.2959C8.09942 5.19125 8.01641 5.06702 7.95977 4.93029C7.90314 4.79356 7.87399 4.64702 7.87399 4.49902C7.87399 4.35103 7.90314 4.20448 7.95977 4.06776C8.01641 3.93103 8.09942 3.80679 8.20407 3.70215C8.30871 3.5975 8.43295 3.51449 8.56968 3.45785C8.70641 3.40122 8.85295 3.37207 9.00094 3.37207C9.14894 3.37207 9.29548 3.40122 9.43221 3.45785C9.56894 3.51449 9.69317 3.5975 9.79782 3.70215L17.2978 11.2021C17.4026 11.3068 17.4856 11.4311 17.5423 11.5679C17.5989 11.7047 17.6279 11.8513 17.6278 11.9994C17.6276 12.1475 17.5982 12.2941 17.5413 12.4307C17.4843 12.5674 17.4009 12.6915 17.2959 12.7959Z" fill="black"/>
</svg>
