<svg width="156" height="156" viewBox="0 0 156 156" fill="none" xmlns="http://www.w3.org/2000/svg">
<g filter="url(#filter0_d_677_9567)">
<rect x="3" y="3" width="150" height="150" rx="5" fill="#F7F7F7" shape-rendering="crispEdges"/>
<mask id="mask0_677_9567" style="mask-type:alpha" maskUnits="userSpaceOnUse" x="66" y="66" width="24" height="24">
<rect x="66" y="66" width="24" height="24" fill="#D9D9D9"/>
</mask>
<g mask="url(#mask0_677_9567)">
<path d="M71 87C70.45 87 69.979 86.8043 69.587 86.413C69.1957 86.021 69 85.55 69 85V71C69 70.45 69.1957 69.979 69.587 69.587C69.979 69.1957 70.45 69 71 69H79C79.2833 69 79.521 69.0957 79.713 69.287C79.9043 69.479 80 69.7167 80 70C80 70.2833 79.9043 70.5207 79.713 70.712C79.521 70.904 79.2833 71 79 71H71V85H85V77C85 76.7167 85.096 76.479 85.288 76.287C85.4793 76.0957 85.7167 76 86 76C86.2833 76 86.5207 76.0957 86.712 76.287C86.904 76.479 87 76.7167 87 77V85C87 85.55 86.8043 86.021 86.413 86.413C86.021 86.8043 85.55 87 85 87H71ZM84 75C83.7167 75 83.4793 74.904 83.288 74.712C83.096 74.5207 83 74.2833 83 74V73H82C81.7167 73 81.4793 72.9043 81.288 72.713C81.096 72.521 81 72.2833 81 72C81 71.7167 81.096 71.479 81.288 71.287C81.4793 71.0957 81.7167 71 82 71H83V70C83 69.7167 83.096 69.479 83.288 69.287C83.4793 69.0957 83.7167 69 84 69C84.2833 69 84.5207 69.0957 84.712 69.287C84.904 69.479 85 69.7167 85 70V71H86C86.2833 71 86.5207 71.0957 86.712 71.287C86.904 71.479 87 71.7167 87 72C87 72.2833 86.904 72.521 86.712 72.713C86.5207 72.9043 86.2833 73 86 73H85V74C85 74.2833 84.904 74.5207 84.712 74.712C84.5207 74.904 84.2833 75 84 75ZM73 83H83C83.2 83 83.35 82.9083 83.45 82.725C83.55 82.5417 83.5333 82.3667 83.4 82.2L80.65 78.525C80.55 78.3917 80.4167 78.325 80.25 78.325C80.0833 78.325 79.95 78.3917 79.85 78.525L77.25 82L75.4 79.525C75.3 79.3917 75.1667 79.325 75 79.325C74.8333 79.325 74.7 79.3917 74.6 79.525L72.6 82.2C72.4667 82.3667 72.45 82.5417 72.55 82.725C72.65 82.9083 72.8 83 73 83Z" fill="#001C38"/>
</g>
</g>
<defs>
<filter id="filter0_d_677_9567" x="0" y="0" width="156" height="156" filterUnits="userSpaceOnUse" color-interpolation-filters="sRGB">
<feFlood flood-opacity="0" result="BackgroundImageFix"/>
<feColorMatrix in="SourceAlpha" type="matrix" values="0 0 0 0 0 0 0 0 0 0 0 0 0 0 0 0 0 0 127 0" result="hardAlpha"/>
<feOffset/>
<feGaussianBlur stdDeviation="1.5"/>
<feComposite in2="hardAlpha" operator="out"/>
<feColorMatrix type="matrix" values="0 0 0 0 0 0 0 0 0 0 0 0 0 0 0 0 0 0 0.25 0"/>
<feBlend mode="normal" in2="BackgroundImageFix" result="effect1_dropShadow_677_9567"/>
<feBlend mode="normal" in="SourceGraphic" in2="effect1_dropShadow_677_9567" result="shape"/>
</filter>
</defs>
</svg>
