<svg width="28" height="25" viewBox="0 0 28 25" fill="none" xmlns="http://www.w3.org/2000/svg">
<path d="M24 3.5H20.8025L19.25 1.1675C19.1128 0.961846 18.9269 0.793292 18.7088 0.676837C18.4907 0.560382 18.2472 0.499635 18 0.500002H10C9.75277 0.499635 9.50929 0.560382 9.29121 0.676837C9.07313 0.793292 8.88721 0.961846 8.75 1.1675L7.19625 3.5H4C3.07174 3.5 2.1815 3.86875 1.52513 4.52513C0.868749 5.18151 0.5 6.07174 0.5 7V21C0.5 21.9283 0.868749 22.8185 1.52513 23.4749C2.1815 24.1313 3.07174 24.5 4 24.5H24C24.4596 24.5 24.9148 24.4095 25.3394 24.2336C25.764 24.0577 26.1499 23.7999 26.4749 23.4749C26.7999 23.1499 27.0577 22.764 27.2336 22.3394C27.4095 21.9148 27.5 21.4596 27.5 21V7C27.5 6.54037 27.4095 6.08525 27.2336 5.66061C27.0577 5.23597 26.7999 4.85013 26.4749 4.52513C26.1499 4.20012 25.764 3.94231 25.3394 3.76642C24.9148 3.59053 24.4596 3.5 24 3.5ZM24.5 21C24.5 21.1326 24.4473 21.2598 24.3536 21.3536C24.2598 21.4473 24.1326 21.5 24 21.5H4C3.86739 21.5 3.74021 21.4473 3.64645 21.3536C3.55268 21.2598 3.5 21.1326 3.5 21V7C3.5 6.86739 3.55268 6.74022 3.64645 6.64645C3.74021 6.55268 3.86739 6.5 4 6.5H8C8.24723 6.50037 8.49071 6.43962 8.70879 6.32317C8.92687 6.20671 9.11279 6.03816 9.25 5.8325L10.8025 3.5H17.1963L18.75 5.8325C18.8872 6.03816 19.0731 6.20671 19.2912 6.32317C19.5093 6.43962 19.7528 6.50037 20 6.5H24C24.1326 6.5 24.2598 6.55268 24.3536 6.64645C24.4473 6.74022 24.5 6.86739 24.5 7V21ZM14 7.5C12.8133 7.5 11.6533 7.8519 10.6666 8.51118C9.67988 9.17047 8.91085 10.1075 8.45672 11.2039C8.0026 12.3003 7.88378 13.5067 8.11529 14.6705C8.3468 15.8344 8.91824 16.9035 9.75736 17.7426C10.5965 18.5818 11.6656 19.1532 12.8295 19.3847C13.9933 19.6162 15.1997 19.4974 16.2961 19.0433C17.3925 18.5892 18.3295 17.8201 18.9888 16.8334C19.6481 15.8467 20 14.6867 20 13.5C19.9983 11.9092 19.3657 10.384 18.2408 9.25919C17.116 8.13433 15.5908 7.50166 14 7.5ZM14 16.5C13.4067 16.5 12.8266 16.3241 12.3333 15.9944C11.8399 15.6648 11.4554 15.1962 11.2284 14.6481C11.0013 14.0999 10.9419 13.4967 11.0576 12.9147C11.1734 12.3328 11.4591 11.7982 11.8787 11.3787C12.2982 10.9591 12.8328 10.6734 13.4147 10.5576C13.9967 10.4419 14.5999 10.5013 15.1481 10.7284C15.6962 10.9554 16.1648 11.3399 16.4944 11.8333C16.8241 12.3266 17 12.9067 17 13.5C17 14.2957 16.6839 15.0587 16.1213 15.6213C15.5587 16.1839 14.7956 16.5 14 16.5Z" fill="#343330"/>
</svg>
