<svg width="27" height="27" viewBox="0 0 27 27" fill="none" xmlns="http://www.w3.org/2000/svg">
<path d="M25.7675 6.8175L20.1825 1.23125C19.9504 0.998995 19.6747 0.814755 19.3713 0.689055C19.0679 0.563355 18.7428 0.498657 18.4144 0.498657C18.086 0.498657 17.7608 0.563355 17.4574 0.689055C17.1541 0.814755 16.8784 0.998995 16.6463 1.23125L1.23251 16.6462C0.999513 16.8777 0.814788 17.1531 0.689047 17.4566C0.563306 17.76 0.499052 18.0853 0.500011 18.4137V24C0.500011 24.663 0.763403 25.2989 1.23224 25.7678C1.70108 26.2366 2.33697 26.5 3.00001 26.5H8.58626C8.91468 26.5009 9.24001 26.4366 9.54341 26.3109C9.84681 26.1851 10.1222 26.0004 10.3538 25.7675L25.7675 10.3525C26.2362 9.88368 26.4995 9.24791 26.4995 8.585C26.4995 7.92209 26.2362 7.28632 25.7675 6.8175ZM8.37501 23.5H3.50001V18.625L14 8.125L18.875 13L8.37501 23.5ZM21 10.875L16.125 6L18.4175 3.7075L23.2925 8.5825L21 10.875Z" fill="black"/>
</svg>
