<svg width="27" height="27" viewBox="0 0 27 27" fill="none" xmlns="http://www.w3.org/2000/svg">
<path d="M26.0613 4.93874L22.0613 0.938741C21.9219 0.798902 21.7563 0.687946 21.574 0.612238C21.3917 0.53653 21.1962 0.497559 20.9988 0.497559C20.8013 0.497559 20.6059 0.53653 20.4235 0.612238C20.2412 0.687946 20.0756 0.798902 19.9363 0.938741L7.93625 12.9387C7.65593 13.2207 7.49902 13.6024 7.5 14V18C7.5 18.3978 7.65804 18.7793 7.93934 19.0606C8.22064 19.342 8.60218 19.5 9 19.5H13C13.197 19.5001 13.3922 19.4615 13.5743 19.3862C13.7564 19.3109 13.9218 19.2005 14.0613 19.0612L26.0613 7.06124C26.2007 6.92193 26.3114 6.7565 26.3868 6.5744C26.4623 6.3923 26.5012 6.19711 26.5012 5.99999C26.5012 5.80287 26.4623 5.60768 26.3868 5.42558C26.3114 5.24348 26.2007 5.07805 26.0613 4.93874ZM21 4.12499L22.875 5.99999L21.5 7.37499L19.625 5.49999L21 4.12499ZM12.375 16.5H10.5V14.625L17.5 7.62499L19.375 9.49999L12.375 16.5ZM25.5 15.5712V24C25.5 24.663 25.2366 25.2989 24.7678 25.7678C24.2989 26.2366 23.663 26.5 23 26.5H3C2.33696 26.5 1.70107 26.2366 1.23223 25.7678C0.763392 25.2989 0.5 24.663 0.5 24V3.99999C0.5 3.33695 0.763392 2.70107 1.23223 2.23222C1.70107 1.76338 2.33696 1.49999 3 1.49999H11.4288C11.8266 1.49999 12.2081 1.65803 12.4894 1.93933C12.7707 2.22064 12.9288 2.60217 12.9288 2.99999C12.9288 3.39782 12.7707 3.77935 12.4894 4.06065C12.2081 4.34196 11.8266 4.49999 11.4288 4.49999H3.5V23.5H22.5V15.5712C22.5 15.1734 22.658 14.7919 22.9393 14.5106C23.2206 14.2293 23.6022 14.0712 24 14.0712C24.3978 14.0712 24.7794 14.2293 25.0607 14.5106C25.342 14.7919 25.5 15.1734 25.5 15.5712Z" fill="#343330"/>
</svg>
