<svg width="377" height="70" viewBox="0 0 377 70" fill="none" xmlns="http://www.w3.org/2000/svg">
<path d="M4.32422 60V10.5078H36.9316V18.9844H14.5781V31.0156H34.8125V39.4922H14.5781V60H4.32422ZM41.7441 60V22.8809H51.8613V60H41.7441ZM46.8027 18.0273C43.7266 18.0273 41.2656 15.7031 41.2656 12.9004C41.2656 10.0293 43.7266 7.70508 46.8027 7.70508C49.8105 7.70508 52.2715 10.0293 52.2715 12.9004C52.2715 15.7031 49.8105 18.0273 46.8027 18.0273ZM68.0898 38.5352V60H57.9727V22.8809H67.6113V29.375H68.0215C69.7305 25.0684 73.6953 22.4023 79.1641 22.4023C86.8887 22.4023 92.0156 27.666 91.9473 36.3477V60H81.8984V38.125C81.8984 33.5449 79.3691 30.8105 75.1992 30.8105C70.9609 30.8105 68.0898 33.6133 68.0898 38.5352ZM121.848 44.209V22.8809H131.965V60H122.258V53.3008H121.848C120.139 57.6074 116.174 60.4785 110.568 60.4785C103.117 60.4785 98.0586 55.2148 98.0586 46.5332V22.8809H108.176V44.7559C108.176 49.1309 110.705 51.9336 114.67 51.9336C118.361 51.9336 121.848 49.2676 121.848 44.209ZM159.268 33.8867C158.857 31.2891 156.533 29.5801 153.184 29.5801C149.902 29.5801 147.373 31.1523 147.441 33.4082C147.373 35.0488 148.74 36.3477 152.227 37.0996L158.857 38.4668C166.035 39.9707 169.521 43.1836 169.59 48.5156C169.521 55.8301 162.959 60.752 153.115 60.752C143.066 60.752 137.188 56.2402 136.367 48.9941H146.553C147.031 51.9336 149.424 53.4375 153.115 53.4375C156.807 53.4375 159.268 51.9336 159.268 49.541C159.268 47.627 157.695 46.4648 154.209 45.7129L148.057 44.4824C141.016 43.1152 137.324 39.4238 137.393 33.9551C137.324 26.8457 143.477 22.4023 153.047 22.4023C162.412 22.4023 168.223 26.8457 168.77 33.8867H159.268Z" fill="url(#paint0_linear_677_9008)"/>
<path d="M44 13H386" stroke="url(#paint1_linear_677_9008)" stroke-width="4" stroke-linecap="round"/>
<defs>
<linearGradient id="paint0_linear_677_9008" x1="0" y1="35" x2="172" y2="35" gradientUnits="userSpaceOnUse">
<stop stop-color="#142755"/>
<stop offset="1" stop-color="#2C56BB"/>
</linearGradient>
<linearGradient id="paint1_linear_677_9008" x1="46" y1="14.7083" x2="345.369" y2="13.28" gradientUnits="userSpaceOnUse">
<stop stop-color="#142755"/>
<stop offset="1" stop-color="#74ABEA"/>
</linearGradient>
</defs>
</svg>
