<svg width="180" height="34" viewBox="0 0 180 34" fill="none" xmlns="http://www.w3.org/2000/svg">
<path d="M10.864 0.591999H12.992V15.408H10.864V0.591999ZM6.496 2.128H8.592C8.592 3.25867 8.48 4.34133 8.256 5.376C8.04267 6.4 7.68 7.36533 7.168 8.272C6.66667 9.17867 5.97333 10.0213 5.088 10.8C4.21333 11.568 3.12 12.272 1.808 12.912L0.688 11.232C2.11733 10.5387 3.25333 9.776 4.096 8.944C4.94933 8.10133 5.56267 7.152 5.936 6.096C6.30933 5.02933 6.496 3.83467 6.496 2.512V2.128ZM1.488 2.128H7.488V3.824H1.488V2.128ZM15.5747 8.544H28.9828V10.224H15.5747V8.544ZM17.2067 0.879999H27.3507V4.896H19.3348V6.496H17.2387V3.392H25.2548V2.496H17.2067V0.879999ZM17.2387 5.872H27.6388V7.488H17.2387V5.872ZM21.2228 6.656H23.3348V9.456H21.2228V6.656ZM17.0467 11.056H27.4468V15.376H25.3188V12.752H17.0467V11.056ZM36.4135 6.048H38.8455V7.76H36.4135V6.048ZM41.1815 0.591999H43.2135V15.408H41.1815V0.591999ZM38.1735 0.832H40.1575V14.752H38.1735V0.832ZM33.8215 1.632C34.4722 1.632 35.0375 1.85067 35.5175 2.288C36.0082 2.71467 36.3815 3.33333 36.6375 4.144C36.9042 4.944 37.0375 5.904 37.0375 7.024C37.0375 8.13333 36.9042 9.09333 36.6375 9.904C36.3815 10.7147 36.0082 11.3387 35.5175 11.776C35.0375 12.2027 34.4668 12.416 33.8055 12.416C33.1655 12.416 32.6002 12.2027 32.1095 11.776C31.6295 11.3387 31.2562 10.7147 30.9895 9.904C30.7335 9.09333 30.6055 8.13333 30.6055 7.024C30.6055 5.904 30.7335 4.944 30.9895 4.144C31.2562 3.33333 31.6295 2.71467 32.1095 2.288C32.6002 1.85067 33.1708 1.632 33.8215 1.632ZM33.8215 3.648C33.5548 3.648 33.3255 3.77067 33.1335 4.016C32.9415 4.26133 32.7922 4.63467 32.6855 5.136C32.5895 5.62667 32.5415 6.256 32.5415 7.024C32.5415 7.77067 32.5895 8.39467 32.6855 8.896C32.7922 9.39733 32.9415 9.776 33.1335 10.032C33.3255 10.2773 33.5548 10.4 33.8215 10.4C34.0882 10.4 34.3175 10.2773 34.5095 10.032C34.7122 9.776 34.8615 9.39733 34.9575 8.896C35.0535 8.39467 35.1015 7.77067 35.1015 7.024C35.1015 6.256 35.0535 5.62667 34.9575 5.136C34.8615 4.63467 34.7122 4.26133 34.5095 4.016C34.3175 3.77067 34.0882 3.648 33.8215 3.648ZM45.8282 1.808H52.9002V8.976H45.8282V1.808ZM50.8042 3.504H47.9242V7.296H50.8042V3.504ZM54.9322 0.608H57.0602V11.408H54.9322V0.608ZM56.4682 4.88H59.0282V6.624H56.4682V4.88ZM47.5082 13.456H57.5882V15.168H47.5082V13.456ZM47.5082 10.352H49.6522V14.32H47.5082V10.352ZM65.0594 1.888H72.1154V11.808H65.0594V1.888ZM70.0194 3.568H67.1554V10.144H70.0194V3.568ZM74.8194 0.575999H76.9474V15.44H74.8194V0.575999ZM71.7314 5.696H75.6834V7.408H71.7314V5.696ZM79.4341 8.88H92.8421V10.592H79.4341V8.88ZM85.0181 9.968H87.1461V15.424H85.0181V9.968ZM80.9701 1.328H91.2421V7.296H80.9701V1.328ZM89.1621 2.992H83.0661V5.632H89.1621V2.992ZM94.3529 12.016H107.777V13.76H94.3529V12.016ZM95.8729 1.584H106.257V6.544H98.0009V9.024H95.8889V4.88H104.145V3.296H95.8729V1.584ZM95.8889 8.192H106.593V9.888H95.8889V8.192ZM112.84 2.944H114.536V4.608C114.536 5.46133 114.445 6.29867 114.264 7.12C114.093 7.94133 113.832 8.71467 113.48 9.44C113.138 10.1547 112.706 10.7893 112.184 11.344C111.661 11.888 111.053 12.32 110.36 12.64L109.144 10.96C109.762 10.672 110.301 10.2987 110.76 9.84C111.229 9.38133 111.613 8.86933 111.912 8.304C112.221 7.728 112.45 7.12533 112.6 6.496C112.76 5.856 112.84 5.22667 112.84 4.608V2.944ZM113.304 2.944H114.984V4.608C114.984 5.19467 115.058 5.792 115.208 6.4C115.368 6.99733 115.597 7.568 115.896 8.112C116.194 8.64533 116.573 9.12533 117.032 9.552C117.49 9.97867 118.034 10.32 118.664 10.576L117.496 12.272C116.792 11.9627 116.178 11.5467 115.656 11.024C115.133 10.5013 114.696 9.89867 114.344 9.216C113.992 8.53333 113.73 7.80267 113.56 7.024C113.389 6.23467 113.304 5.42933 113.304 4.608V2.944ZM109.736 2.016H118.056V3.776H109.736V2.016ZM119.432 0.608H121.56V15.424H119.432V0.608ZM132.407 1.312C133.175 1.312 133.852 1.46133 134.439 1.76C135.036 2.05867 135.505 2.46933 135.847 2.992C136.199 3.504 136.375 4.096 136.375 4.768C136.375 5.44 136.199 6.03733 135.847 6.56C135.505 7.08267 135.036 7.49333 134.439 7.792C133.852 8.09067 133.175 8.24 132.407 8.24C131.66 8.24 130.988 8.09067 130.391 7.792C129.804 7.49333 129.335 7.08267 128.983 6.56C128.641 6.03733 128.471 5.44 128.471 4.768C128.471 4.096 128.641 3.504 128.983 2.992C129.335 2.46933 129.804 2.05867 130.391 1.76C130.988 1.46133 131.66 1.312 132.407 1.312ZM132.423 3.04C132.06 3.04 131.735 3.10933 131.447 3.248C131.159 3.376 130.929 3.57333 130.759 3.84C130.599 4.096 130.519 4.40533 130.519 4.768C130.519 5.13067 130.599 5.44 130.759 5.696C130.929 5.952 131.159 6.14933 131.447 6.288C131.735 6.42667 132.06 6.496 132.423 6.496C132.785 6.496 133.105 6.42667 133.383 6.288C133.671 6.14933 133.895 5.952 134.055 5.696C134.225 5.44 134.311 5.13067 134.311 4.768C134.311 4.40533 134.225 4.096 134.055 3.84C133.895 3.57333 133.671 3.376 133.383 3.248C133.105 3.10933 132.785 3.04 132.423 3.04ZM137.895 0.608H140.023V7.888H137.895V0.608ZM139.191 3.664H141.991V5.408H139.191V3.664ZM129.671 13.328H130.503C130.929 13.328 131.34 13.3173 131.735 13.296C132.14 13.2747 132.529 13.232 132.903 13.168C133.287 13.0933 133.66 12.992 134.023 12.864L134.327 14.544C133.921 14.6827 133.516 14.784 133.111 14.848C132.705 14.9227 132.289 14.9707 131.863 14.992C131.447 15.024 130.993 15.04 130.503 15.04H129.671V13.328ZM129.671 9.312H131.735V13.856H129.671V9.312ZM133.815 9.36H141.207V10.88H133.815V9.36ZM137.511 11.264C138.353 11.264 139.041 11.456 139.575 11.84C140.108 12.2133 140.375 12.7147 140.375 13.344C140.375 13.9947 140.108 14.5067 139.575 14.88C139.041 15.2533 138.353 15.44 137.511 15.44C136.668 15.44 135.98 15.2533 135.447 14.88C134.913 14.5067 134.647 13.9947 134.647 13.344C134.647 12.7147 134.913 12.2133 135.447 11.84C135.98 11.456 136.668 11.264 137.511 11.264ZM137.511 12.704C137.233 12.704 136.999 12.7573 136.807 12.864C136.625 12.9707 136.535 13.1307 136.535 13.344C136.535 13.568 136.625 13.7333 136.807 13.84C136.999 13.9467 137.233 14 137.511 14C137.788 14 138.017 13.9467 138.199 13.84C138.391 13.7333 138.487 13.568 138.487 13.344C138.487 13.1307 138.391 12.9707 138.199 12.864C138.017 12.7573 137.788 12.704 137.511 12.704ZM136.487 8.304H138.551V10.512H136.487V8.304ZM144.669 1.856H154.045V3.552H144.669V1.856ZM143.293 11.904H156.701V13.632H143.293V11.904ZM148.029 6.816H150.173V12.768H148.029V6.816ZM153.277 1.856H155.421V3.264C155.421 3.88267 155.411 4.53867 155.389 5.232C155.379 5.92533 155.331 6.69333 155.245 7.536C155.171 8.37867 155.032 9.32267 154.829 10.368L152.701 10.144C153 8.66133 153.171 7.37067 153.213 6.272C153.256 5.16267 153.277 4.16 153.277 3.264V1.856ZM160.564 12.1016L160.556 13.6094C160.556 14.1875 160.41 14.7708 160.119 15.3594C159.832 15.9479 159.468 16.4297 159.025 16.8047L157.853 16.2031C157.983 15.9635 158.111 15.724 158.236 15.4844C158.361 15.2448 158.465 14.9818 158.548 14.6953C158.632 14.4089 158.673 14.0833 158.673 13.7188V12.1016H160.564ZM11.712 24.192H14.32V25.952H11.712V24.192ZM10.112 18.576H12.256V33.392H10.112V18.576ZM1.104 20H3.216V29.216H1.104V20ZM1.104 28.016H2.368C3.424 28.016 4.52267 27.9733 5.664 27.888C6.80533 27.8027 7.97333 27.6427 9.168 27.408L9.392 29.136C8.15467 29.392 6.94933 29.568 5.776 29.664C4.60267 29.7493 3.46667 29.792 2.368 29.792H1.104V28.016ZM20.3428 19.584C21.1108 19.584 21.8041 19.7387 22.4227 20.048C23.0414 20.3573 23.5267 20.7893 23.8787 21.344C24.2308 21.888 24.4068 22.5173 24.4068 23.232C24.4068 23.936 24.2308 24.5653 23.8787 25.12C23.5267 25.6747 23.0414 26.1067 22.4227 26.416C21.8041 26.7253 21.1108 26.88 20.3428 26.88C19.5641 26.88 18.8654 26.7253 18.2467 26.416C17.6281 26.1067 17.1374 25.6747 16.7747 25.12C16.4227 24.5653 16.2467 23.936 16.2467 23.232C16.2467 22.5173 16.4227 21.888 16.7747 21.344C17.1374 20.7893 17.6281 20.3573 18.2467 20.048C18.8654 19.7387 19.5641 19.584 20.3428 19.584ZM20.3428 21.408C19.9587 21.408 19.6121 21.4827 19.3028 21.632C19.0041 21.7707 18.7641 21.9787 18.5828 22.256C18.4121 22.5227 18.3268 22.848 18.3268 23.232C18.3268 23.616 18.4121 23.9467 18.5828 24.224C18.7641 24.5013 19.0041 24.7147 19.3028 24.864C19.6121 25.0027 19.9587 25.072 20.3428 25.072C20.7161 25.072 21.0521 25.0027 21.3507 24.864C21.6494 24.7147 21.8841 24.5013 22.0547 24.224C22.2361 23.9467 22.3268 23.616 22.3268 23.232C22.3268 22.848 22.2361 22.5227 22.0547 22.256C21.8841 21.9787 21.6494 21.7707 21.3507 21.632C21.0521 21.4827 20.7161 21.408 20.3428 21.408ZM25.7987 18.576H27.9268V33.44H25.7987V18.576ZM15.8787 30.448L15.6387 28.72C16.5027 28.72 17.4574 28.7147 18.5027 28.704C19.5587 28.6827 20.6414 28.64 21.7508 28.576C22.8707 28.5013 23.9534 28.3893 24.9988 28.24L25.1428 29.776C24.0761 29.9893 22.9934 30.144 21.8948 30.24C20.7961 30.3253 19.7347 30.384 18.7108 30.416C17.6867 30.4373 16.7427 30.448 15.8787 30.448ZM45.2699 18.608H47.3019V27.888H45.2699V18.608ZM43.4779 22.256H45.8299V23.984H43.4779V22.256ZM42.2139 18.88H44.1979V27.392H42.2139V18.88ZM34.5979 20.112H41.7979V21.76H34.5979V20.112ZM38.2139 22.224C38.8432 22.224 39.3979 22.336 39.8779 22.56C40.3579 22.784 40.7312 23.088 40.9979 23.472C41.2752 23.856 41.4139 24.304 41.4139 24.816C41.4139 25.328 41.2752 25.7813 40.9979 26.176C40.7312 26.56 40.3579 26.864 39.8779 27.088C39.3979 27.3013 38.8432 27.408 38.2139 27.408C37.6059 27.408 37.0565 27.3013 36.5659 27.088C36.0859 26.864 35.7072 26.56 35.4299 26.176C35.1525 25.7813 35.0139 25.328 35.0139 24.816C35.0139 24.304 35.1525 23.856 35.4299 23.472C35.7072 23.088 36.0859 22.784 36.5659 22.56C37.0565 22.336 37.6059 22.224 38.2139 22.224ZM38.2139 23.76C37.8299 23.76 37.5152 23.8507 37.2699 24.032C37.0352 24.2133 36.9179 24.4747 36.9179 24.816C36.9179 25.1573 37.0352 25.424 37.2699 25.616C37.5152 25.7973 37.8299 25.888 38.2139 25.888C38.5979 25.888 38.9125 25.7973 39.1579 25.616C39.4032 25.424 39.5259 25.1573 39.5259 24.816C39.5259 24.4747 39.4032 24.2133 39.1579 24.032C38.9232 23.8507 38.6085 23.76 38.2139 23.76ZM37.1579 18.752H39.2539V21.248H37.1579V18.752ZM42.2779 28.032C43.8672 28.032 45.1152 28.2667 46.0219 28.736C46.9285 29.2053 47.3819 29.872 47.3819 30.736C47.3819 31.5893 46.9285 32.2507 46.0219 32.72C45.1152 33.1893 43.8672 33.424 42.2779 33.424C40.6885 33.424 39.4405 33.1893 38.5339 32.72C37.6379 32.2507 37.1899 31.5893 37.1899 30.736C37.1899 29.872 37.6379 29.2053 38.5339 28.736C39.4405 28.2667 40.6885 28.032 42.2779 28.032ZM42.2939 29.616C41.3019 29.616 40.5552 29.7067 40.0539 29.888C39.5525 30.0693 39.3019 30.352 39.3019 30.736C39.3019 31.1093 39.5525 31.3867 40.0539 31.568C40.5552 31.7493 41.3019 31.84 42.2939 31.84C43.2645 31.84 43.9952 31.7493 44.4859 31.568C44.9872 31.3867 45.2379 31.1093 45.2379 30.736C45.2379 30.352 44.9872 30.0693 44.4859 29.888C43.9952 29.7067 43.2645 29.616 42.2939 29.616ZM49.6126 25.568H63.0046V27.248H49.6126V25.568ZM55.2446 23.344H57.3726V26.224H55.2446V23.344ZM51.2286 22.672H61.4846V24.336H51.2286V22.672ZM51.2286 19.232H61.4046V20.912H53.3406V23.728H51.2286V19.232ZM56.2526 27.984C57.8526 27.984 59.1113 28.224 60.0286 28.704C60.946 29.1733 61.4046 29.8453 61.4046 30.72C61.4046 31.584 60.946 32.2507 60.0286 32.72C59.1113 33.2 57.8526 33.44 56.2526 33.44C54.6526 33.44 53.394 33.2 52.4766 32.72C51.57 32.2507 51.1166 31.584 51.1166 30.72C51.1166 29.8453 51.57 29.1733 52.4766 28.704C53.394 28.224 54.6526 27.984 56.2526 27.984ZM56.2526 29.6C55.5913 29.6 55.0366 29.6427 54.5886 29.728C54.1513 29.8027 53.8206 29.9253 53.5966 30.096C53.3726 30.256 53.2606 30.4587 53.2606 30.704C53.2606 30.96 53.3726 31.1733 53.5966 31.344C53.8206 31.504 54.1513 31.6267 54.5886 31.712C55.0366 31.7867 55.5913 31.824 56.2526 31.824C56.914 31.824 57.4633 31.7867 57.9006 31.712C58.3486 31.6267 58.6846 31.504 58.9086 31.344C59.1326 31.1733 59.2446 30.96 59.2446 30.704C59.2446 30.4587 59.1326 30.256 58.9086 30.096C58.6846 29.9253 58.3486 29.8027 57.9006 29.728C57.4633 29.6427 56.914 29.6 56.2526 29.6ZM71.2194 18.8C72.9047 18.8 74.2167 19.0187 75.1554 19.456C76.1047 19.8933 76.5794 20.5227 76.5794 21.344C76.5794 22.1547 76.1047 22.7787 75.1554 23.216C74.2167 23.6533 72.9047 23.872 71.2194 23.872C69.5234 23.872 68.2007 23.6533 67.2514 23.216C66.3127 22.7787 65.8434 22.1547 65.8434 21.344C65.8434 20.5227 66.3127 19.8933 67.2514 19.456C68.2007 19.0187 69.5234 18.8 71.2194 18.8ZM71.2034 20.368C70.4994 20.368 69.9127 20.4053 69.4434 20.48C68.974 20.544 68.622 20.6507 68.3874 20.8C68.1634 20.9387 68.0514 21.12 68.0514 21.344C68.0514 21.568 68.1634 21.7547 68.3874 21.904C68.622 22.0427 68.974 22.144 69.4434 22.208C69.9127 22.272 70.4994 22.304 71.2034 22.304C71.918 22.304 72.51 22.272 72.9794 22.208C73.4487 22.144 73.7954 22.0427 74.0194 21.904C74.2434 21.7547 74.3554 21.568 74.3554 21.344C74.3554 21.12 74.2434 20.9387 74.0194 20.8C73.7954 20.6507 73.4487 20.544 72.9794 20.48C72.51 20.4053 71.918 20.368 71.2034 20.368ZM64.4994 24.56H77.9074V26.24H64.4994V24.56ZM66.0354 27.072H76.2754V30.864H68.1634V32.176H66.0514V29.392H74.1794V28.64H66.0354V27.072ZM66.0514 31.712H76.6754V33.328H66.0514V31.712ZM93.0745 18.608H95.2185V33.424H93.0745V18.608ZM94.7545 24.112H97.3625V25.872H94.7545V24.112ZM84.0665 19.76H86.1785V23.376H89.1545V19.76H91.2665V29.984H84.0665V19.76ZM86.1785 25.024V28.288H89.1545V25.024H86.1785ZM98.5212 23.728H111.945V25.424H98.5212V23.728ZM104.169 24.832H106.281V27.744H104.169V24.832ZM100.057 26.64H110.265V30.72H102.201V32.4H100.073V29.184H108.153V28.272H100.057V26.64ZM100.073 31.664H110.665V33.328H100.073V31.664ZM99.7052 19.056H103.161V20.736H99.7052V19.056ZM102.537 19.056H104.601V20.048C104.601 20.4213 104.591 20.848 104.569 21.328C104.548 21.7973 104.489 22.304 104.393 22.848C104.297 23.392 104.132 23.984 103.897 24.624L101.865 24.144C102.089 23.5253 102.249 22.9813 102.345 22.512C102.441 22.032 102.495 21.5947 102.505 21.2C102.527 20.7947 102.537 20.4107 102.537 20.048V19.056ZM105.497 19.056H109.305V20.736H105.497V19.056ZM108.313 19.056H110.377V19.904C110.377 20.4373 110.351 21.088 110.297 21.856C110.244 22.624 110.063 23.5093 109.753 24.512L107.705 24.224C108.015 23.232 108.191 22.3893 108.233 21.696C108.287 21.0027 108.313 20.4053 108.313 19.904V19.056ZM123.224 19.024H125.08V19.728C125.08 20.2933 124.99 20.8427 124.808 21.376C124.638 21.8987 124.382 22.3893 124.04 22.848C123.699 23.3067 123.283 23.7173 122.792 24.08C122.302 24.4427 121.731 24.752 121.08 25.008C120.44 25.2533 119.736 25.44 118.968 25.568L118.136 23.856C118.819 23.7707 119.427 23.6267 119.96 23.424C120.504 23.2213 120.979 22.9813 121.384 22.704C121.8 22.4267 122.142 22.1227 122.408 21.792C122.675 21.4613 122.878 21.12 123.016 20.768C123.155 20.416 123.224 20.0693 123.224 19.728V19.024ZM123.624 19.024H125.48V19.728C125.48 20.0693 125.55 20.416 125.688 20.768C125.827 21.12 126.03 21.4613 126.296 21.792C126.563 22.1227 126.899 22.4267 127.304 22.704C127.72 22.9813 128.195 23.2213 128.728 23.424C129.272 23.6267 129.886 23.7707 130.568 23.856L129.736 25.568C128.958 25.44 128.248 25.2533 127.608 25.008C126.968 24.752 126.403 24.4427 125.912 24.08C125.422 23.7067 125.006 23.2907 124.664 22.832C124.323 22.3733 124.062 21.8827 123.88 21.36C123.71 20.8373 123.624 20.2933 123.624 19.728V19.024ZM123.224 27.984H125.352V33.424H123.224V27.984ZM117.64 26.64H131.048V28.368H117.64V26.64ZM140.071 27.6H141.671V28.096C141.671 28.8427 141.554 29.552 141.319 30.224C141.085 30.896 140.722 31.488 140.231 32C139.751 32.5227 139.122 32.9227 138.343 33.2L137.319 31.648C137.97 31.424 138.498 31.1253 138.903 30.752C139.309 30.3787 139.602 29.9627 139.783 29.504C139.975 29.0347 140.071 28.5653 140.071 28.096V27.6ZM140.599 27.6H142.119V28.096C142.119 28.5653 142.205 29.04 142.375 29.52C142.557 29.9893 142.829 30.4213 143.191 30.816C143.565 31.2107 144.055 31.5307 144.663 31.776L143.799 33.36C143.021 33.0613 142.397 32.6347 141.927 32.08C141.458 31.536 141.117 30.9173 140.903 30.224C140.701 29.52 140.599 28.8107 140.599 28.096V27.6ZM145.463 27.6H146.983V28.096C146.983 28.7787 146.877 29.4667 146.663 30.16C146.461 30.8533 146.125 31.4827 145.655 32.048C145.197 32.6133 144.578 33.0507 143.799 33.36L142.935 31.776C143.533 31.5093 144.018 31.1733 144.391 30.768C144.765 30.352 145.037 29.9147 145.207 29.456C145.378 28.9867 145.463 28.5333 145.463 28.096V27.6ZM145.959 27.6H147.559V28.096C147.559 28.5973 147.65 29.0827 147.831 29.552C148.023 30.0213 148.322 30.4373 148.727 30.8C149.133 31.1627 149.661 31.4453 150.311 31.648L149.287 33.2C148.509 32.9333 147.874 32.544 147.383 32.032C146.893 31.5307 146.53 30.944 146.295 30.272C146.071 29.5893 145.959 28.864 145.959 28.096V27.6ZM146.919 18.608H149.047V26.992H146.919V18.608ZM140.983 19.36C141.751 19.36 142.439 19.5147 143.047 19.824C143.655 20.1227 144.135 20.5387 144.487 21.072C144.839 21.6053 145.015 22.2187 145.015 22.912C145.015 23.6053 144.839 24.2187 144.487 24.752C144.135 25.2853 143.655 25.7067 143.047 26.016C142.439 26.3147 141.751 26.464 140.983 26.464C140.215 26.464 139.527 26.3147 138.919 26.016C138.311 25.7067 137.831 25.2853 137.479 24.752C137.127 24.2187 136.951 23.6053 136.951 22.912C136.951 22.2187 137.127 21.6053 137.479 21.072C137.831 20.5387 138.311 20.1227 138.919 19.824C139.527 19.5147 140.215 19.36 140.983 19.36ZM140.983 21.12C140.621 21.12 140.29 21.1947 139.991 21.344C139.693 21.4827 139.458 21.6853 139.287 21.952C139.117 22.208 139.031 22.528 139.031 22.912C139.031 23.2853 139.117 23.6107 139.287 23.888C139.458 24.1547 139.693 24.3573 139.991 24.496C140.29 24.6347 140.621 24.704 140.983 24.704C141.357 24.704 141.687 24.6347 141.975 24.496C142.274 24.3573 142.509 24.1547 142.679 23.888C142.85 23.6107 142.935 23.2853 142.935 22.912C142.935 22.528 142.85 22.208 142.679 21.952C142.509 21.6853 142.274 21.4827 141.975 21.344C141.687 21.1947 141.357 21.12 140.983 21.12ZM153.23 25.2H163.646V26.912H153.23V25.2ZM151.662 30.016H165.086V31.76H151.662V30.016ZM157.294 25.984H159.406V30.576H157.294V25.984ZM153.23 19.616H163.534V21.312H155.342V25.936H153.23V19.616ZM166.581 26.544H179.989V28.224H166.581V26.544ZM168.213 18.88H178.357V22.896H170.341V24.496H168.245V21.392H176.261V20.496H168.213V18.88ZM168.245 23.872H178.645V25.488H168.245V23.872ZM172.229 24.656H174.341V27.456H172.229V24.656ZM168.053 29.056H178.453V33.376H176.325V30.752H168.053V29.056Z" fill="url(#paint0_linear_677_9005)"/>
<defs>
<linearGradient id="paint0_linear_677_9005" x1="62" y1="4.72371e-07" x2="159.5" y2="61.5" gradientUnits="userSpaceOnUse">
<stop stop-color="#142755"/>
<stop offset="1" stop-color="#74ABEA"/>
</linearGradient>
</defs>
</svg>
