<svg width="11" height="11" viewBox="0 0 11 11" fill="none" xmlns="http://www.w3.org/2000/svg">
<path d="M10.9688 5.5C10.9688 5.67405 10.8996 5.84097 10.7765 5.96404C10.6535 6.08711 10.4865 6.15625 10.3125 6.15625H6.15625V10.3125C6.15625 10.4865 6.08711 10.6535 5.96404 10.7765C5.84097 10.8996 5.67405 10.9688 5.5 10.9688C5.32595 10.9688 5.15903 10.8996 5.03596 10.7765C4.91289 10.6535 4.84375 10.4865 4.84375 10.3125V6.15625H0.6875C0.513452 6.15625 0.346532 6.08711 0.223461 5.96404C0.10039 5.84097 0.03125 5.67405 0.03125 5.5C0.03125 5.32595 0.10039 5.15903 0.223461 5.03596C0.346532 4.91289 0.513452 4.84375 0.6875 4.84375H4.84375V0.6875C4.84375 0.513452 4.91289 0.346532 5.03596 0.223461C5.15903 0.10039 5.32595 0.03125 5.5 0.03125C5.67405 0.03125 5.84097 0.10039 5.96404 0.223461C6.08711 0.346532 6.15625 0.513452 6.15625 0.6875V4.84375H10.3125C10.4865 4.84375 10.6535 4.91289 10.7765 5.03596C10.8996 5.15903 10.9688 5.32595 10.9688 5.5Z" fill="#5C5C5C"/>
</svg>
