<svg width="12" height="13" viewBox="0 0 12 13" fill="none" xmlns="http://www.w3.org/2000/svg">
<path d="M9.77295 9.47699C9.87862 9.58266 9.93799 9.72599 9.93799 9.87543C9.93799 10.0249 9.87862 10.1682 9.77295 10.2739C9.66728 10.3795 9.52395 10.4389 9.37451 10.4389C9.22507 10.4389 9.08175 10.3795 8.97607 10.2739L5.99998 7.29683L3.02295 10.2729C2.91728 10.3786 2.77395 10.438 2.62451 10.438C2.47507 10.438 2.33175 10.3786 2.22607 10.2729C2.1204 10.1673 2.06104 10.0239 2.06104 9.87449C2.06104 9.72505 2.1204 9.58173 2.22607 9.47605L5.2031 6.49996L2.22701 3.52293C2.12134 3.41726 2.06197 3.27393 2.06197 3.12449C2.06197 2.97505 2.12134 2.83173 2.22701 2.72605C2.33268 2.62038 2.47601 2.56102 2.62545 2.56102C2.77489 2.56102 2.91821 2.62038 3.02389 2.72605L5.99998 5.70309L8.97701 2.72558C9.08268 2.61991 9.226 2.56055 9.37545 2.56055C9.52489 2.56055 9.66821 2.61991 9.77389 2.72558C9.87956 2.83126 9.93892 2.97458 9.93892 3.12402C9.93892 3.27347 9.87956 3.41679 9.77389 3.52246L6.79685 6.49996L9.77295 9.47699Z" fill="#5C5C5C"/>
</svg>
